<mxfile host="app.diagrams.net" modified="2022-09-24T11:26:44.612Z" agent="5.0 (Windows NT 10.0; Win64; x64) AppleWebKit/537.36 (KHTML, like Gecko) Chrome/105.0.0.0 Safari/537.36" etag="IijiTWuUNdVTEB-atWwh" version="20.3.6" type="github">
  <diagram id="C5RBs43oDa-KdzZeNtuy" name="Page-1">
    <mxGraphModel dx="1021" dy="529" grid="1" gridSize="10" guides="1" tooltips="1" connect="1" arrows="1" fold="1" page="1" pageScale="1" pageWidth="827" pageHeight="1169" math="0" shadow="0">
      <root>
        <mxCell id="WIyWlLk6GJQsqaUBKTNV-0" />
        <mxCell id="WIyWlLk6GJQsqaUBKTNV-1" parent="WIyWlLk6GJQsqaUBKTNV-0" />
        <mxCell id="DiXQdrhjiOWNJstiKwL7-30" value="" style="edgeStyle=orthogonalEdgeStyle;rounded=0;orthogonalLoop=1;jettySize=auto;html=1;" edge="1" parent="WIyWlLk6GJQsqaUBKTNV-1" source="DiXQdrhjiOWNJstiKwL7-7" target="DiXQdrhjiOWNJstiKwL7-9">
          <mxGeometry relative="1" as="geometry" />
        </mxCell>
        <mxCell id="DiXQdrhjiOWNJstiKwL7-7" value="start" style="rounded=1;whiteSpace=wrap;html=1;" vertex="1" parent="WIyWlLk6GJQsqaUBKTNV-1">
          <mxGeometry x="210" y="60" width="120" height="50" as="geometry" />
        </mxCell>
        <mxCell id="DiXQdrhjiOWNJstiKwL7-8" value="end" style="rounded=1;whiteSpace=wrap;html=1;" vertex="1" parent="WIyWlLk6GJQsqaUBKTNV-1">
          <mxGeometry x="210" y="740" width="120" height="45" as="geometry" />
        </mxCell>
        <mxCell id="DiXQdrhjiOWNJstiKwL7-29" value="" style="edgeStyle=orthogonalEdgeStyle;rounded=0;orthogonalLoop=1;jettySize=auto;html=1;" edge="1" parent="WIyWlLk6GJQsqaUBKTNV-1" source="DiXQdrhjiOWNJstiKwL7-9" target="DiXQdrhjiOWNJstiKwL7-10">
          <mxGeometry relative="1" as="geometry" />
        </mxCell>
        <mxCell id="DiXQdrhjiOWNJstiKwL7-9" value="input three numbers&lt;br&gt;n1, n2, n3" style="shape=parallelogram;perimeter=parallelogramPerimeter;whiteSpace=wrap;html=1;fixedSize=1;" vertex="1" parent="WIyWlLk6GJQsqaUBKTNV-1">
          <mxGeometry x="195" y="150" width="150" height="70" as="geometry" />
        </mxCell>
        <mxCell id="DiXQdrhjiOWNJstiKwL7-18" style="edgeStyle=orthogonalEdgeStyle;rounded=0;orthogonalLoop=1;jettySize=auto;html=1;" edge="1" parent="WIyWlLk6GJQsqaUBKTNV-1" source="DiXQdrhjiOWNJstiKwL7-10" target="DiXQdrhjiOWNJstiKwL7-13">
          <mxGeometry relative="1" as="geometry" />
        </mxCell>
        <mxCell id="DiXQdrhjiOWNJstiKwL7-28" value="" style="edgeStyle=orthogonalEdgeStyle;rounded=0;orthogonalLoop=1;jettySize=auto;html=1;" edge="1" parent="WIyWlLk6GJQsqaUBKTNV-1" source="DiXQdrhjiOWNJstiKwL7-10" target="DiXQdrhjiOWNJstiKwL7-11">
          <mxGeometry relative="1" as="geometry" />
        </mxCell>
        <mxCell id="DiXQdrhjiOWNJstiKwL7-10" value="sort the numbers orderly" style="rounded=0;whiteSpace=wrap;html=1;" vertex="1" parent="WIyWlLk6GJQsqaUBKTNV-1">
          <mxGeometry x="210" y="270" width="120" height="60" as="geometry" />
        </mxCell>
        <mxCell id="DiXQdrhjiOWNJstiKwL7-14" value="" style="edgeStyle=orthogonalEdgeStyle;rounded=0;orthogonalLoop=1;jettySize=auto;html=1;" edge="1" parent="WIyWlLk6GJQsqaUBKTNV-1" source="DiXQdrhjiOWNJstiKwL7-11" target="DiXQdrhjiOWNJstiKwL7-13">
          <mxGeometry relative="1" as="geometry" />
        </mxCell>
        <mxCell id="DiXQdrhjiOWNJstiKwL7-23" style="edgeStyle=orthogonalEdgeStyle;rounded=0;orthogonalLoop=1;jettySize=auto;html=1;" edge="1" parent="WIyWlLk6GJQsqaUBKTNV-1" source="DiXQdrhjiOWNJstiKwL7-11">
          <mxGeometry relative="1" as="geometry">
            <mxPoint x="150" y="620" as="targetPoint" />
          </mxGeometry>
        </mxCell>
        <mxCell id="DiXQdrhjiOWNJstiKwL7-25" value="" style="edgeStyle=orthogonalEdgeStyle;rounded=0;orthogonalLoop=1;jettySize=auto;html=1;" edge="1" parent="WIyWlLk6GJQsqaUBKTNV-1" source="DiXQdrhjiOWNJstiKwL7-11" target="DiXQdrhjiOWNJstiKwL7-12">
          <mxGeometry relative="1" as="geometry" />
        </mxCell>
        <mxCell id="DiXQdrhjiOWNJstiKwL7-11" value="if n1 is &amp;gt; n2" style="rhombus;whiteSpace=wrap;html=1;" vertex="1" parent="WIyWlLk6GJQsqaUBKTNV-1">
          <mxGeometry x="210" y="370" width="130" height="100" as="geometry" />
        </mxCell>
        <mxCell id="DiXQdrhjiOWNJstiKwL7-20" value="" style="edgeStyle=orthogonalEdgeStyle;rounded=0;orthogonalLoop=1;jettySize=auto;html=1;" edge="1" parent="WIyWlLk6GJQsqaUBKTNV-1" source="DiXQdrhjiOWNJstiKwL7-12" target="DiXQdrhjiOWNJstiKwL7-19">
          <mxGeometry relative="1" as="geometry" />
        </mxCell>
        <mxCell id="DiXQdrhjiOWNJstiKwL7-26" value="" style="edgeStyle=orthogonalEdgeStyle;rounded=0;orthogonalLoop=1;jettySize=auto;html=1;" edge="1" parent="WIyWlLk6GJQsqaUBKTNV-1" source="DiXQdrhjiOWNJstiKwL7-12" target="DiXQdrhjiOWNJstiKwL7-21">
          <mxGeometry relative="1" as="geometry" />
        </mxCell>
        <mxCell id="DiXQdrhjiOWNJstiKwL7-12" value="if n3 &amp;lt; n2" style="rhombus;whiteSpace=wrap;html=1;" vertex="1" parent="WIyWlLk6GJQsqaUBKTNV-1">
          <mxGeometry x="202.5" y="500" width="135" height="100" as="geometry" />
        </mxCell>
        <mxCell id="DiXQdrhjiOWNJstiKwL7-13" value="print n2, n3, n1" style="shape=parallelogram;perimeter=parallelogramPerimeter;whiteSpace=wrap;html=1;fixedSize=1;" vertex="1" parent="WIyWlLk6GJQsqaUBKTNV-1">
          <mxGeometry x="425" y="390" width="120" height="60" as="geometry" />
        </mxCell>
        <mxCell id="DiXQdrhjiOWNJstiKwL7-15" value="yes" style="text;html=1;align=center;verticalAlign=middle;resizable=0;points=[];autosize=1;strokeColor=none;fillColor=none;" vertex="1" parent="WIyWlLk6GJQsqaUBKTNV-1">
          <mxGeometry x="390" y="395" width="40" height="30" as="geometry" />
        </mxCell>
        <mxCell id="DiXQdrhjiOWNJstiKwL7-19" value="print n3, n2, n1" style="shape=parallelogram;perimeter=parallelogramPerimeter;whiteSpace=wrap;html=1;fixedSize=1;" vertex="1" parent="WIyWlLk6GJQsqaUBKTNV-1">
          <mxGeometry x="425" y="520" width="120" height="60" as="geometry" />
        </mxCell>
        <mxCell id="DiXQdrhjiOWNJstiKwL7-27" value="" style="edgeStyle=orthogonalEdgeStyle;rounded=0;orthogonalLoop=1;jettySize=auto;html=1;" edge="1" parent="WIyWlLk6GJQsqaUBKTNV-1" source="DiXQdrhjiOWNJstiKwL7-21" target="DiXQdrhjiOWNJstiKwL7-8">
          <mxGeometry relative="1" as="geometry" />
        </mxCell>
        <mxCell id="DiXQdrhjiOWNJstiKwL7-21" value="print n1, n2, n3" style="shape=parallelogram;perimeter=parallelogramPerimeter;whiteSpace=wrap;html=1;fixedSize=1;" vertex="1" parent="WIyWlLk6GJQsqaUBKTNV-1">
          <mxGeometry x="135" y="630" width="255" height="60" as="geometry" />
        </mxCell>
        <mxCell id="DiXQdrhjiOWNJstiKwL7-22" style="edgeStyle=orthogonalEdgeStyle;rounded=0;orthogonalLoop=1;jettySize=auto;html=1;" edge="1" parent="WIyWlLk6GJQsqaUBKTNV-1" source="DiXQdrhjiOWNJstiKwL7-11" target="DiXQdrhjiOWNJstiKwL7-11">
          <mxGeometry relative="1" as="geometry" />
        </mxCell>
        <mxCell id="DiXQdrhjiOWNJstiKwL7-24" value="no" style="text;html=1;align=center;verticalAlign=middle;resizable=0;points=[];autosize=1;strokeColor=none;fillColor=none;" vertex="1" parent="WIyWlLk6GJQsqaUBKTNV-1">
          <mxGeometry x="150" y="395" width="40" height="30" as="geometry" />
        </mxCell>
      </root>
    </mxGraphModel>
  </diagram>
</mxfile>
